<svg width="229" height="170" viewBox="0 0 229 170" fill="none" xmlns="http://www.w3.org/2000/svg">
<path d="M4.04761 106.794L224.254 106.794" stroke="url(#paint0_linear_91_3)" stroke-width="5.73685"/>
<path d="M4.04761 61.7815L224.254 61.7815" stroke="url(#paint1_linear_91_3)" stroke-width="5.73685"/>
<g filter="url(#filter0_d_91_3)">
<path d="M6.80591 60.2566L7.48168 59.0885L8.15745 57.9451L8.83322 56.8288L9.50899 55.7422L10.1848 54.6875L10.8605 53.6672L11.5363 52.6836L12.2121 51.7388L12.8878 50.8348L13.5636 49.9738L14.2394 49.1577L14.9151 48.3881L15.5909 47.667L16.2667 46.9957L16.9424 46.376L17.6182 45.809L18.294 45.2961L18.9698 44.8385L19.6455 44.4371L20.3213 44.0928L20.9971 43.8064L21.6728 43.5785L22.3486 43.4096L23.0244 43.3002L23.7001 43.2504L24.3759 43.2603L25.0517 43.33L25.7275 43.4593L26.4032 43.6479L27.079 43.8954L27.7548 44.2011L28.4305 44.5646L29.1063 44.9848L29.7821 45.461L30.4578 45.9921L31.1336 46.5768L31.8094 47.2138L32.4851 47.9019L33.1609 48.6394L33.8367 49.4246L34.5125 50.2559L35.1882 51.1315L35.864 52.0493L36.5398 53.0073L37.2155 54.0034L37.8913 55.0354L38.5671 56.101L39.2428 57.1978L39.9186 58.3234L40.5944 59.4753L41.2702 60.6509L41.9459 61.8477L42.6217 63.0629L43.2975 64.2939L43.9732 65.538L44.649 66.7923L45.3248 68.0541L46.0005 69.3206L46.6763 70.589L47.3521 71.8564L48.0278 73.1201L48.7036 74.3772L49.3794 75.625L50.0552 76.8606L50.7309 78.0814L51.4067 79.2846L52.0825 80.4676L52.7582 81.6277L53.434 82.7624L54.1098 83.869L54.7855 84.9453L55.4613 85.9888L56.1371 86.9971L56.8128 87.968L57.4886 88.8995L58.1644 89.7893L58.8402 90.6355L59.5159 91.4364L60.1917 92.19L60.8675 92.8946L61.5432 93.5489L62.219 94.1512L62.8948 94.7003L63.5705 95.1948L64.2463 95.6339L64.9221 96.0163L65.5979 96.3414L66.2736 96.6084L66.9494 96.8166L67.6252 96.9657L68.3009 97.0553L68.9767 97.0852L69.6525 97.0553L70.3282 96.9657L71.004 96.8166L71.6798 96.6084L72.3555 96.3414L73.0313 96.0163L73.7071 95.6339L74.3829 95.1948L75.0586 94.7003L75.7344 94.1512L76.4102 93.5489L77.0859 92.8946L77.7617 92.19L78.4375 91.4364L79.1132 90.6355L79.789 89.7893L80.4648 88.8995L81.1405 87.968L81.8163 86.9971L82.4921 85.9888L83.1679 84.9453L83.8436 83.869L84.5194 82.7624L85.1952 81.6277L85.8709 80.4676L86.5467 79.2846L87.2225 78.0814L87.8982 76.8606L88.574 75.625L89.2498 74.3772L89.9255 73.1201L90.6013 71.8564L91.2771 70.589L91.9529 69.3206L92.6286 68.0541L93.3044 66.7923L93.9802 65.538L94.6559 64.2939L95.3317 63.0629L96.0075 61.8477L96.6832 60.6509L97.359 59.4753L98.0348 58.3234L98.7106 57.1978L99.3863 56.101L100.062 55.0354L100.738 54.0034L101.414 53.0073L102.089 52.0493L102.765 51.1315L103.441 50.2559L104.117 49.4246L104.792 48.6394L105.468 47.9019L106.144 47.2138L106.82 46.5768L107.496 45.9921L108.171 45.461L108.847 44.9848L109.523 44.5646L110.199 44.2011L110.874 43.8954L111.55 43.6479L112.226 43.4593L112.902 43.33L113.577 43.2603L114.253 43.2504L114.929 43.3002L115.605 43.4096L116.281 43.5785L116.956 43.8064L117.632 44.0928L118.308 44.4371L118.984 44.8385L119.659 45.2961L120.335 45.809L121.011 46.376L121.687 46.9957L122.362 47.667L123.038 48.3881L123.714 49.1577L124.39 49.9738L125.066 50.8348L125.741 51.7388L126.417 52.6836L127.093 53.6672L127.769 54.6875L128.444 55.7422L129.12 56.8288L129.796 57.9451L130.472 59.0885L131.147 60.2566L131.823 61.4466L132.499 62.6559L133.175 63.882L133.851 65.122L134.526 66.3732L135.202 67.6328L135.878 68.8981L136.554 70.1661L137.229 71.4342L137.905 72.6994L138.581 73.9591L139.257 75.2103L139.932 76.4503L140.608 77.6763L141.284 78.8857L141.96 80.0757L142.636 81.2437L143.311 82.3871L143.987 83.5034L144.663 84.5901L145.339 85.6447L146.014 86.665L146.69 87.6487L147.366 88.5935L148.042 89.4974L148.717 90.3584L149.393 91.1746L150.069 91.9441L150.745 92.6653L151.421 93.3365L152.096 93.9563L152.772 94.5232L153.448 95.0361L154.124 95.4938L154.799 95.8952L155.475 96.2395L156.151 96.5259L156.827 96.7538L157.502 96.9226L158.178 97.0321L158.854 97.0819L159.53 97.0719L160.206 97.0022L160.881 96.8729L161.557 96.6844L162.233 96.4369L162.909 96.1311L163.584 95.7677L164.26 95.3474L164.936 94.8712L165.612 94.3402L166.287 93.7555L166.963 93.1184L167.639 92.4304L168.315 91.6929L168.991 90.9076L169.666 90.0763L170.342 89.2008L171.018 88.283L171.694 87.325L172.369 86.3289L173.045 85.2969L173.721 84.2313L174.397 83.1345L175.072 82.0089L175.748 80.857L176.424 79.6813L177.1 78.4846L177.776 77.2693L178.451 76.0383L179.127 74.7943L179.803 73.54L180.479 72.2782L181.154 71.0117L181.83 69.7433L182.506 68.4759L183.182 67.2122L183.857 65.9551L184.533 64.7073L185.209 63.4716L185.885 62.2508L186.561 61.0476L187.236 59.8646L187.912 58.7045L188.588 57.5699L189.264 56.4632L189.939 55.3869L190.615 54.3435L191.291 53.3352L191.967 52.3642L192.642 51.4328L193.318 50.543L193.994 49.6967L194.67 48.8959L195.346 48.1423L196.021 47.4376L196.697 46.7834L197.373 46.1811L198.049 45.632L198.724 45.1374L199.4 44.6984L200.076 44.3159L200.752 43.9908L201.428 43.7239L202.103 43.5156L202.779 43.3665L203.455 43.2769L204.131 43.2471L204.806 43.2769L205.482 43.3665L206.158 43.5156L206.834 43.7239L207.509 43.9908L208.185 44.3159L208.861 44.6984L209.537 45.1374L210.213 45.632L210.888 46.1811L211.564 46.7834L212.24 47.4376L212.916 48.1423L213.591 48.8959L214.267 49.6967L214.943 50.543L215.619 51.4328L216.294 52.3642L216.97 53.3352L217.646 54.3435L218.322 55.3869L218.998 56.4632L219.673 57.5699L220.349 58.7045L221.025 59.8646" stroke="url(#paint2_linear_91_3)" stroke-width="6.61944" stroke-miterlimit="10" stroke-linecap="round" stroke-linejoin="round"/>
</g>
<path d="M5.79932 107.207L6.4762 108.41L7.15307 109.593L7.82994 110.753L8.50682 111.888L9.18369 112.995L9.86057 114.071L10.5374 115.114L11.2143 116.123L11.8912 117.094L12.5681 118.025L13.2449 118.915L13.9218 119.761L14.5987 120.562L15.2756 121.316L15.9524 122.02L16.6293 122.674L17.3062 123.277L17.9831 123.826L18.6599 124.32L19.3368 124.759L20.0137 125.142L20.6906 125.467L21.3675 125.734L22.0443 125.942L22.7212 126.091L23.3981 126.181L24.0749 126.211L24.7518 126.181L25.4287 126.091L26.1056 125.942L26.7825 125.734L27.4593 125.467L28.1362 125.142L28.8131 124.759L29.49 124.32L30.1668 123.826L30.8437 123.277L31.5206 122.674L32.1975 122.02L32.8743 121.316L33.5512 120.562L34.2281 119.761L34.905 118.915L35.5818 118.025L36.2587 117.094L36.9356 116.123L37.6125 115.114L38.2893 114.071L38.9662 112.995L39.6431 111.888L40.32 110.753L40.9968 109.593L41.6737 108.41L42.3506 107.207L43.0275 105.986L43.7043 104.751L44.3812 103.503L45.0581 102.246L45.735 100.982L46.4118 99.7145L47.0887 98.4461L47.7656 97.1796L48.4425 95.9178L49.1193 94.6635L49.7962 93.4195L50.4731 92.1885L51.15 90.9732L51.8268 89.7765L52.5037 88.6008L53.1806 87.4489L53.8575 86.3233L54.5343 85.2265L55.2112 84.1609L55.8881 83.1289L56.565 82.1328L57.2418 81.1748L57.9187 80.257L58.5956 79.3815L59.2725 78.5502L59.9493 77.7649L60.6262 77.0274L61.3031 76.3394L61.98 75.7023L62.6568 75.1176L63.3337 74.5866L64.0106 74.1104L64.6875 73.6901L65.3644 73.3267L66.0412 73.0209L66.7181 72.7735L67.395 72.5849L68.0718 72.4556L68.7487 72.3859L69.4256 72.3759L70.1025 72.4257L70.7793 72.5352L71.4562 72.704L72.1331 72.9319L72.81 73.2183L73.4869 73.5626L74.1637 73.964L74.8406 74.4217L75.5175 74.9346L76.1943 75.5015L76.8712 76.1213L77.5481 76.7925L78.225 77.5137L78.9019 78.2832L79.5787 79.0994L80.2556 79.9604L80.9325 80.8643L81.6094 81.8091L82.2862 82.7928L82.9631 83.8131L83.64 84.8677L84.3169 85.9544L84.9937 87.0707L85.6706 88.2141L86.3475 89.3821L87.0244 90.5721L87.7012 91.7815L88.3781 93.0075L89.055 94.2475L89.7319 95.4987L90.4087 96.7584L91.0856 98.0236L91.7625 99.2917L92.4394 100.56L93.1162 101.825L93.7931 103.085L94.47 104.336L95.1469 105.576L95.8237 106.802L96.5006 108.011L97.1775 109.201L97.8544 110.369L98.5312 111.513L99.2081 112.629L99.885 113.716L100.562 114.77L101.239 115.791L101.916 116.774L102.592 117.719L103.269 118.623L103.946 119.484L104.623 120.3L105.3 121.07L105.977 121.791L106.654 122.462L107.331 123.082L108.007 123.649L108.684 124.162L109.361 124.619L110.038 125.021L110.715 125.365L111.392 125.651L112.069 125.879L112.746 126.048L113.422 126.158L114.099 126.207L114.776 126.197L115.453 126.128L116.13 125.998L116.807 125.81L117.484 125.562L118.161 125.257L118.837 124.893L119.514 124.473L120.191 123.997L120.868 123.466L121.545 122.881L122.222 122.244L122.899 121.556L123.576 120.818L124.252 120.033L124.929 119.202L125.606 118.326L126.283 117.409L126.96 116.451L127.637 115.454L128.314 114.422L128.991 113.357L129.668 112.26L130.344 111.134L131.021 109.983L131.698 108.807L132.375 107.61L133.052 106.395L133.729 105.164L134.406 103.92L135.083 102.666L135.759 101.404L136.436 100.137L137.113 98.8688L137.79 97.6014L138.467 96.3377L139.144 95.0806L139.821 93.8328L140.497 92.5972L141.174 91.3764L141.851 90.1732L142.528 88.9902L143.205 87.8301L143.882 86.6954L144.559 85.5888L145.236 84.5125L145.913 83.469L146.589 82.4607L147.266 81.4898L147.943 80.5583L148.62 79.6685L149.297 78.8223L149.974 78.0214L150.651 77.2678L151.328 76.5632L152.004 75.9089L152.681 75.3066L153.358 74.7575L154.035 74.263L154.712 73.8239L155.389 73.4415L156.066 73.1164L156.743 72.8494L157.419 72.6412L158.096 72.4921L158.773 72.4025L159.45 72.3726L160.127 72.4025L160.804 72.4921L161.481 72.6412L162.158 72.8494L162.834 73.1164L163.511 73.4415L164.188 73.8239L164.865 74.263L165.542 74.7575L166.219 75.3066L166.896 75.9089L167.573 76.5632L168.249 77.2678L168.926 78.0214L169.603 78.8223L170.28 79.6685L170.957 80.5583L171.634 81.4898L172.311 82.4607L172.988 83.469L173.664 84.5125L174.341 85.5888L175.018 86.6954L175.695 87.8301L176.372 88.9902L177.049 90.1732L177.726 91.3764L178.403 92.5972L179.079 93.8328L179.756 95.0806L180.433 96.3377L181.11 97.6014L181.787 98.8688L182.464 100.137L183.141 101.404L183.818 102.666L184.494 103.92L185.171 105.164L185.848 106.395L186.525 107.61L187.202 108.807L187.879 109.983L188.556 111.134L189.233 112.26L189.909 113.357L190.586 114.422L191.263 115.454L191.94 116.451L192.617 117.409L193.294 118.326L193.971 119.202L194.648 120.033L195.324 120.818L196.001 121.556L196.678 122.244L197.355 122.881L198.032 123.466L198.709 123.997L199.386 124.473L200.063 124.893L200.739 125.257L201.416 125.562L202.093 125.81L202.77 125.998L203.447 126.128L204.124 126.197L204.801 126.207L205.478 126.158L206.154 126.048L206.831 125.879L207.508 125.651L208.185 125.365L208.862 125.021L209.539 124.619L210.216 124.162L210.893 123.649L211.569 123.082L212.246 122.462L212.923 121.791L213.6 121.07L214.277 120.3L214.954 119.484L215.631 118.623L216.308 117.719L216.984 116.774L217.661 115.791L218.338 114.77L219.015 113.716L219.692 112.629L220.369 111.513L221.046 110.369L221.723 109.201L222.399 108.011" stroke="url(#paint3_linear_91_3)" stroke-width="6.61944" stroke-miterlimit="10" stroke-linecap="round" stroke-linejoin="round"/>
<path fill-rule="evenodd" clip-rule="evenodd" d="M48.7429 54.0601C48.6463 54.065 48.55 54.0682 48.4539 54.0699C50.2421 43.4048 52.9337 33.7816 56.3243 25.7262C59.5401 18.0862 63.4369 11.7318 67.8992 7.24776C72.3715 2.75362 77.5645 3.86647e-06 83.2601 3.86647e-06C88.9557 3.86647e-06 94.1488 2.75362 98.6211 7.24776C103.083 11.7318 106.98 18.0862 110.196 25.7262C116.632 41.0171 120.55 61.9574 120.55 84.9495C120.55 107.942 116.632 128.882 110.196 144.173C106.98 151.813 103.083 158.167 98.6211 162.651C94.1488 167.145 88.9557 169.899 83.2601 169.899C77.5645 169.899 72.3715 167.145 67.8992 162.651C63.4369 158.167 59.5401 151.813 56.3243 144.173C52.8608 135.944 50.1266 126.08 48.3398 115.139C49.6969 113.93 51.436 113.148 53.3619 113.003C55.0824 124.094 57.7888 134.002 61.2051 142.118C64.2583 149.372 67.8262 155.071 71.6528 158.916C75.4694 162.751 79.3897 164.604 83.2601 164.604C87.1306 164.604 91.0508 162.751 94.8675 158.916C98.6941 155.071 102.262 149.372 105.315 142.118C111.417 127.622 115.254 107.411 115.254 84.9495C115.254 62.4877 111.417 42.2771 105.315 27.7806C102.262 20.527 98.6941 14.8285 94.8675 10.9832C91.0508 7.14791 87.1306 5.29556 83.2601 5.29556C79.3897 5.29556 75.4694 7.14791 71.6528 10.9832C67.8262 14.8285 64.2583 20.527 61.2051 27.7806C58.3383 34.5915 55.9714 42.6637 54.2675 51.6381C52.8219 53.0502 50.8892 53.9516 48.7429 54.0601Z" fill="url(#paint4_linear_91_3)"/>
<path d="M3.60623 59.244L13.9767 64.6499H0.903564L3.60623 59.244Z" fill="#075B9E"/>
<path d="M224.034 58.9131L216.311 64.6499H227.012L224.034 58.9131Z" fill="#075B9E"/>
<path d="M225.44 109.221L217.194 103.925H228.226L225.44 109.221Z" fill="#075B9E"/>
<path d="M3.08071 109.221L10.9969 103.925H0.405761L3.08071 109.221Z" fill="#075B9E"/>
<defs>
<filter id="filter0_d_91_3" x="1.73042" y="39.9373" width="224.37" height="63.988" filterUnits="userSpaceOnUse" color-interpolation-filters="sRGB">
<feFlood flood-opacity="0" result="BackgroundImageFix"/>
<feColorMatrix in="SourceAlpha" type="matrix" values="0 0 0 0 0 0 0 0 0 0 0 0 0 0 0 0 0 0 127 0" result="hardAlpha"/>
<feOffset dy="1.76518"/>
<feGaussianBlur stdDeviation="0.882592"/>
<feComposite in2="hardAlpha" operator="out"/>
<feColorMatrix type="matrix" values="0 0 0 0 0 0 0 0 0 0 0 0 0 0 0 0 0 0 0.25 0"/>
<feBlend mode="normal" in2="BackgroundImageFix" result="effect1_dropShadow_91_3"/>
<feBlend mode="normal" in="SourceGraphic" in2="effect1_dropShadow_91_3" result="shape"/>
</filter>
<linearGradient id="paint0_linear_91_3" x1="86.4795" y1="107.294" x2="141.823" y2="107.294" gradientUnits="userSpaceOnUse">
<stop stop-color="#075B9E"/>
<stop offset="0.2" stop-color="#2B92C5"/>
<stop offset="0.48" stop-color="#5FC6C0"/>
<stop offset="0.731865" stop-color="#1E85C6"/>
<stop offset="1" stop-color="#075B9E"/>
</linearGradient>
<linearGradient id="paint1_linear_91_3" x1="86.4795" y1="62.2815" x2="141.823" y2="62.2815" gradientUnits="userSpaceOnUse">
<stop stop-color="#075B9E"/>
<stop offset="0.2" stop-color="#2B92C5"/>
<stop offset="0.48" stop-color="#5FC6C0"/>
<stop offset="0.731865" stop-color="#1E85C6"/>
<stop offset="1" stop-color="#075B9E"/>
</linearGradient>
<linearGradient id="paint2_linear_91_3" x1="86.9963" y1="70.1661" x2="140.834" y2="70.1661" gradientUnits="userSpaceOnUse">
<stop stop-color="#075B9E"/>
<stop offset="0.2" stop-color="#2B92C5"/>
<stop offset="0.48" stop-color="#5FC6C0"/>
<stop offset="0.731865" stop-color="#1E85C6"/>
<stop offset="1" stop-color="#075B9E"/>
</linearGradient>
<linearGradient id="paint3_linear_91_3" x1="86.8811" y1="99.2917" x2="141.318" y2="99.2917" gradientUnits="userSpaceOnUse">
<stop stop-color="#075B9E"/>
<stop offset="0.2" stop-color="#2B92C5"/>
<stop offset="0.48" stop-color="#5FC6C0"/>
<stop offset="0.731865" stop-color="#1E85C6"/>
<stop offset="1" stop-color="#075B9E"/>
</linearGradient>
<linearGradient id="paint4_linear_91_3" x1="48" y1="79.5" x2="109.499" y2="79.3226" gradientUnits="userSpaceOnUse">
<stop stop-color="#79A8DC" stop-opacity="0.31"/>
<stop offset="1"/>
</linearGradient>
</defs>
</svg>
