<svg width="500" height="1046" viewBox="0 0 718 1503" fill="none" xmlns="http://www.w3.org/2000/svg">
<path opacity="0.0344828" d="M580.12 267.836C587.794 265.672 596.395 266.865 605.88 271.441C615.385 276.028 625.647 283.953 636.472 295.003C658.122 317.104 681.735 351.4 705.891 395.411C754.141 483.369 804.252 609.679 844.686 753.443C885.139 897.218 908.26 1031.12 912.946 1131.35C915.28 1181.47 913.022 1223.07 906.066 1253.22C902.587 1268.29 897.968 1280.4 892.26 1289.27C886.544 1298.11 879.832 1303.62 872.141 1305.78C864.467 1307.94 855.866 1306.75 846.38 1302.17C836.876 1297.58 826.63 1289.67 815.788 1278.61C794.137 1256.51 770.524 1222.21 746.386 1178.21C698.12 1090.24 648.027 963.944 607.574 820.168C567.122 676.393 543.999 542.49 539.314 442.264C536.979 392.139 539.239 350.544 546.194 320.396C549.672 305.321 554.291 293.215 560.017 284.357C565.715 275.5 572.428 269.988 580.12 267.836Z" stroke="black" stroke-width="2"/>
<path opacity="0.0689655" d="M628.332 253.509C636.168 252.026 644.646 253.975 653.688 259.355C662.749 264.746 672.289 273.538 682.108 285.489C701.745 309.391 722.288 345.621 742.511 391.563C782.914 483.398 821.825 613.592 849.581 760.339C877.357 907.096 888.71 1042.5 884.641 1142.75C882.598 1192.89 876.716 1234.12 867.163 1263.55C862.387 1278.27 856.736 1289.93 850.252 1298.25C843.796 1306.57 836.632 1311.48 828.794 1312.96C820.957 1314.45 812.479 1312.5 803.437 1307.12C794.376 1301.73 784.854 1292.95 775.018 1280.98C755.38 1257.08 734.838 1220.85 714.632 1174.92C674.21 1083.08 635.318 952.894 607.543 806.135C579.769 659.376 568.434 523.987 572.485 423.721C574.527 373.583 580.41 332.35 589.963 302.919C594.739 288.204 600.407 276.552 606.873 268.219C613.33 259.9 620.494 254.993 628.332 253.509Z" stroke="black" stroke-width="2"/>
<path opacity="0.103448" d="M677.321 243.222C685.262 242.43 693.533 245.106 702.075 251.257C710.635 257.42 719.353 266.997 728.096 279.759C745.579 305.286 762.898 343.176 779.016 390.69C811.284 485.71 838.682 618.789 853.553 767.405C868.425 916.019 867.926 1051.89 855.147 1151.41C848.749 1201.19 839.295 1241.75 827.202 1270.23C821.173 1284.48 814.511 1295.6 807.349 1303.34C800.198 1311.07 792.618 1315.32 784.676 1316.11C776.735 1316.9 768.482 1314.24 759.921 1308.08C751.361 1301.91 742.643 1292.34 733.901 1279.57C716.418 1254.05 699.099 1216.16 682.981 1168.64C650.731 1073.64 623.314 940.545 608.443 791.929C593.572 643.315 594.071 507.445 606.849 407.92C613.247 358.144 622.701 317.581 634.795 289.103C640.824 274.851 647.486 263.736 654.647 255.995C661.818 248.278 669.38 244.014 677.321 243.222Z" stroke="black" stroke-width="2"/>
<path opacity="0.137931" d="M726.717 237.017C734.687 236.912 742.685 240.294 750.676 247.177C758.665 254.063 766.521 264.367 774.122 277.845C789.303 304.791 803.24 344.036 815.169 392.784C839.023 490.249 854.727 625.214 856.597 774.563C858.447 923.903 846.113 1059.22 824.705 1157.24C814.001 1206.28 801.036 1245.86 786.532 1273.19C779.261 1286.85 771.662 1297.34 763.849 1304.43C756.046 1311.5 748.137 1315.08 740.149 1315.17C732.18 1315.28 724.181 1311.9 716.208 1305.03C708.201 1298.13 700.345 1287.82 692.763 1274.36C677.563 1247.4 663.626 1208.16 651.697 1159.41C627.843 1061.94 612.139 926.978 610.271 777.626C608.419 628.289 620.753 492.975 642.162 394.945C652.866 345.911 665.83 306.336 680.352 279.014C687.606 265.345 695.205 254.85 703.018 247.765C710.82 240.693 718.731 237.108 726.717 237.017Z" stroke="black" stroke-width="2"/>
<path opacity="0.172414" d="M776.166 234.915C784.108 235.503 791.792 239.575 799.129 247.111C806.499 254.675 813.421 265.619 819.818 279.712C832.614 307.894 843.078 348.205 850.712 397.806C865.977 496.975 869.854 632.792 858.691 781.733C847.529 930.671 823.442 1064.39 793.57 1160.18C778.634 1208.09 762.277 1246.39 745.44 1272.35C737.011 1285.33 728.528 1295.13 720.128 1301.5C711.736 1307.86 703.528 1310.73 695.586 1310.15C687.626 1309.55 679.942 1305.48 672.605 1297.94C665.235 1290.38 658.313 1279.43 651.916 1265.34C639.137 1237.17 628.655 1196.85 621.022 1147.24C605.757 1048.08 601.88 912.258 613.041 763.32C624.205 614.38 648.292 480.661 678.163 384.873C693.099 336.959 709.457 298.657 726.312 272.709C734.723 259.721 743.204 249.927 751.624 243.561C759.998 237.186 768.205 234.316 776.166 234.915Z" stroke="black" stroke-width="2"/>
<path opacity="0.206897" d="M825.291 236.894C833.172 238.185 840.465 242.906 847.121 251.058C853.792 259.226 859.748 270.743 864.89 285.334C875.173 314.517 882.084 355.589 885.365 405.667C891.926 505.788 883.95 641.423 859.864 788.834C835.761 936.233 800.112 1067.35 762.011 1160.17C742.941 1206.59 723.311 1243.32 704.274 1267.71C694.738 1279.9 685.446 1288.93 676.516 1294.54C667.596 1300.15 659.192 1302.31 651.313 1301.01C643.432 1299.72 636.138 1295 629.482 1286.85C622.811 1278.68 616.855 1267.17 611.714 1252.57C601.43 1223.39 594.519 1182.32 591.238 1132.24C584.677 1032.12 592.653 896.484 616.757 749.086C640.842 601.675 676.491 470.562 714.61 377.751C733.662 331.319 753.292 294.586 772.347 270.206C781.865 258.009 791.175 248.995 800.087 243.365C809.007 237.762 817.429 235.613 825.291 236.894Z" stroke="black" stroke-width="2"/>
<path opacity="0.241379" d="M873.767 242.928C881.498 244.898 888.349 250.233 894.283 258.944C900.213 267.661 905.14 279.651 908.993 294.637C916.681 324.596 919.992 366.115 918.894 416.288C916.715 516.607 896.954 651.039 860.097 795.778C823.241 940.515 776.296 1068.02 730.243 1157.16C707.215 1201.76 684.454 1236.64 663.368 1259.28C652.806 1270.59 642.759 1278.77 633.379 1283.59C624.008 1288.39 615.436 1289.8 607.703 1287.83C599.971 1285.87 593.122 1280.53 587.187 1271.82C581.257 1263.1 576.329 1251.11 572.476 1236.13C564.789 1206.17 561.479 1164.65 562.576 1114.48C564.755 1014.16 584.516 879.724 621.373 734.986C658.229 590.249 705.173 462.744 751.227 373.6C774.255 329.007 797.015 294.128 818.119 271.498C828.663 260.176 838.71 251.999 848.091 247.178C857.463 242.369 866.035 240.959 873.767 242.928Z" stroke="black" stroke-width="2"/>
<path opacity="0.275862" d="M921.23 252.946C928.767 255.584 935.121 261.493 940.262 270.678C945.415 279.883 949.273 292.252 951.809 307.52C956.864 338.042 956.551 379.699 951.075 429.578C940.161 529.323 908.747 661.514 859.418 802.489C810.088 943.466 752.216 1066.4 698.584 1151.2C671.74 1193.6 646.029 1226.37 623.041 1247.08C611.556 1257.44 600.824 1264.71 591.05 1268.69C581.303 1272.66 572.642 1273.32 565.105 1270.68C557.587 1268.06 551.215 1262.13 546.075 1252.95C540.922 1243.74 537.063 1231.38 534.527 1216.11C529.472 1185.59 529.802 1143.94 535.261 1094.05C546.175 994.304 577.589 862.113 626.918 721.138C676.248 580.161 734.12 457.227 787.77 372.439C814.596 330.024 840.307 297.26 863.295 276.547C874.797 266.197 885.529 258.934 895.286 254.942C905.033 250.964 913.694 250.305 921.23 252.946Z" stroke="black" stroke-width="2"/>
<path opacity="0.310345" d="M967.34 266.831C974.619 270.117 980.429 276.555 984.759 286.161C989.085 295.773 991.854 308.436 993.05 323.866C995.425 354.713 991.477 396.177 981.689 445.402C962.115 543.809 919.307 672.764 857.873 808.902C796.439 945.039 728.072 1062.46 667.237 1142.25C636.81 1182.16 608.343 1212.56 583.638 1231.19C571.293 1240.51 559.965 1246.81 549.889 1249.93C539.821 1253.03 531.148 1252.94 523.869 1249.66C516.608 1246.38 510.781 1239.93 506.45 1230.33C502.125 1220.71 499.354 1208.05 498.159 1192.62C495.784 1161.77 499.732 1120.31 509.537 1071.1C529.094 972.678 571.902 843.723 633.336 707.585C694.77 571.448 763.137 454.027 823.971 374.236C854.398 334.326 882.866 303.925 907.571 285.296C919.915 275.975 931.244 269.676 941.321 266.559C951.388 263.453 960.061 263.545 967.34 266.831Z" stroke="black" stroke-width="2"/>
<path opacity="0.344828" d="M1011.76 284.456C1018.72 288.36 1023.96 295.29 1027.43 305.234C1030.9 315.185 1032.55 328.035 1032.4 343.515C1032.08 374.45 1024.52 415.408 1010.48 463.588C982.407 559.92 928.517 684.648 855.466 814.923C782.398 945.187 704.063 1056.21 636.509 1130.4C602.713 1167.5 571.702 1195.3 545.476 1211.71C532.354 1219.91 520.531 1225.21 510.206 1227.42C499.924 1229.65 491.278 1228.8 484.316 1224.89C477.354 1220.99 472.116 1214.05 468.642 1204.11C465.176 1194.16 463.528 1181.31 463.674 1165.83C463.999 1134.9 471.551 1093.94 485.597 1045.76C513.668 949.425 567.559 824.697 640.61 694.421C713.678 564.158 792.012 453.138 859.567 378.949C893.362 341.847 924.373 314.046 950.599 297.635C963.722 289.435 975.562 284.151 985.869 281.923C996.15 279.693 1004.8 280.549 1011.76 284.456Z" stroke="black" stroke-width="2"/>
<path opacity="0.37931" d="M1054.18 305.663C1060.77 310.154 1065.38 317.512 1067.97 327.716C1070.57 337.943 1071.1 350.894 1069.58 366.283C1066.57 397.083 1055.47 437.222 1037.28 483.998C1000.93 577.52 936.383 697.086 852.248 820.489C768.112 943.894 680.392 1047.66 606.616 1115.67C569.718 1149.69 536.409 1174.69 508.836 1188.74C495.067 1195.78 482.817 1200.01 472.347 1201.33C461.902 1202.65 453.371 1201.04 446.783 1196.55C440.178 1192.05 435.568 1184.69 432.98 1174.49C430.381 1164.26 429.866 1151.32 431.37 1135.92C434.376 1105.12 445.476 1064.98 463.663 1018.21C500.018 924.684 564.582 805.13 648.718 681.725C732.853 558.322 820.556 454.543 894.331 386.534C931.229 352.515 964.538 327.518 992.111 313.467C1005.9 306.44 1018.13 302.193 1028.6 300.876C1039.04 299.558 1047.58 301.159 1054.18 305.663Z" stroke="black" stroke-width="2"/>
<path opacity="0.413793" d="M1094.27 330.247C1100.45 335.302 1104.41 343.037 1106.09 353.424C1107.8 363.845 1107.19 376.785 1104.35 391.995C1098.65 422.405 1084.11 461.428 1061.91 506.443C1017.53 596.432 942.806 709.911 848.242 825.519C753.66 941.114 657.242 1036.85 577.824 1098.17C538.106 1128.85 502.739 1150.84 474.061 1162.45C459.704 1168.24 447.14 1171.4 436.61 1171.81C426.086 1172.21 417.72 1169.86 411.541 1164.81C405.363 1159.76 401.406 1152.02 399.726 1141.63C398.035 1131.22 398.628 1118.27 401.466 1103.06C407.162 1072.65 421.712 1033.63 443.902 988.614C488.282 898.626 563.01 785.146 657.574 669.538C752.156 553.943 848.574 458.209 927.992 396.885C967.71 366.209 1003.08 344.216 1031.76 332.61C1046.11 326.819 1058.68 323.658 1069.21 323.249C1079.73 322.85 1088.1 325.195 1094.27 330.247Z" stroke="black" stroke-width="2"/>
<path opacity="0.448276" d="M1131.78 358.018C1137.5 363.593 1140.75 371.634 1141.54 382.14C1142.32 392.659 1140.59 405.505 1136.43 420.402C1128.11 450.206 1110.21 487.811 1084.18 530.716C1032.13 616.496 947.798 723.036 843.516 829.96C739.234 936.883 634.831 1023.84 550.378 1078.02C508.132 1105.11 470.977 1123.94 441.394 1132.99C426.594 1137.52 413.795 1139.57 403.266 1139.05C392.742 1138.53 384.627 1135.47 378.908 1129.9C373.208 1124.34 369.937 1116.28 369.15 1105.78C368.37 1095.26 370.094 1082.41 374.261 1067.52C382.577 1037.71 400.476 1000.11 426.511 957.2C478.561 871.421 562.889 764.882 667.171 657.958C771.454 551.034 875.856 464.074 960.328 409.911C1002.56 382.806 1039.71 363.982 1069.29 354.923C1084.09 350.398 1096.89 348.352 1107.42 348.866C1117.95 349.386 1126.08 352.455 1131.78 358.018Z" stroke="black" stroke-width="2"/>
<path opacity="0.482759" d="M1166.42 388.724C1171.63 394.776 1174.18 403.078 1174.04 413.606C1173.9 424.157 1171.06 436.801 1165.61 451.278C1154.73 480.243 1133.62 516.147 1103.96 556.627C1044.61 637.534 951.32 736.318 838.112 833.74C724.902 931.165 613.327 1008.7 524.463 1055.3C480.032 1078.62 441.369 1094.13 411.11 1100.58C395.971 1103.79 383.047 1104.72 372.598 1103.29C362.168 1101.86 354.347 1098.1 349.137 1092.05C343.925 1086 341.375 1077.7 341.516 1067.17C341.668 1056.63 344.508 1043.99 349.942 1029.5C360.823 1000.53 381.929 964.628 411.612 924.16C470.94 843.241 564.232 744.458 677.442 647.034C790.651 549.61 902.226 472.074 991.09 425.472C1035.54 402.165 1074.18 386.644 1104.44 380.199C1119.58 376.982 1132.51 376.054 1142.96 377.488C1153.38 378.918 1161.22 382.686 1166.42 388.724Z" stroke="black" stroke-width="2"/>
<path opacity="0.517241" d="M1197.95 422.108C1202.61 428.587 1204.42 437.082 1203.37 447.561C1202.31 458.054 1198.37 470.394 1191.7 484.358C1178.33 512.259 1154.17 546.189 1121.08 583.916C1054.92 659.353 953.381 749.636 832.114 836.822C710.845 924.01 592.926 991.519 500.337 1030.2C454.034 1049.55 414.175 1061.64 383.478 1065.42C368.121 1067.31 355.159 1067.11 344.878 1064.77C334.601 1062.43 327.133 1058 322.474 1051.53C317.816 1045.05 315.997 1036.55 317.068 1026.08C318.109 1015.58 322.052 1003.24 328.739 989.286C342.095 961.373 366.247 927.444 399.344 889.717C465.502 814.278 567.041 723.998 688.31 636.809C809.577 549.623 927.497 482.114 1020.08 443.436C1066.39 424.084 1106.25 411.997 1136.95 408.207C1152.3 406.318 1165.26 406.525 1175.55 408.861C1185.82 411.204 1193.29 415.63 1197.95 422.108Z" stroke="black" stroke-width="2"/>
<path opacity="0.551724" d="M1226.15 457.89C1230.23 464.753 1231.29 473.365 1229.33 483.716C1227.36 494.08 1222.36 506.028 1214.5 519.357C1198.75 545.989 1171.72 577.682 1135.48 612.392C1062.99 681.773 953.967 762.857 825.563 839.145C697.142 915.42 573.795 972.4 478.198 1002.87C430.383 1018.11 389.627 1026.68 358.704 1027.77C343.243 1028.32 330.346 1026.98 320.305 1023.75C310.286 1020.54 303.226 1015.47 299.144 1008.61C295.081 1001.76 294.004 993.131 295.961 982.78C297.928 972.416 302.934 960.47 310.811 947.152C326.545 920.507 353.567 888.814 389.829 854.116C462.298 784.725 571.325 703.639 699.745 627.365C828.148 551.078 951.495 494.098 1047.09 463.627C1094.91 448.386 1135.66 439.817 1166.59 438.727C1182.05 438.181 1194.95 439.518 1204.99 442.744C1215.01 445.961 1222.06 451.027 1226.15 457.89Z" stroke="black" stroke-width="2"/>
<path opacity="0.586207" d="M1250.82 495.767C1254.27 502.945 1254.6 511.634 1251.74 521.77C1248.87 531.922 1242.86 543.395 1233.84 555.969C1215.84 581.139 1186.16 610.36 1147.02 641.768C1068.76 704.569 953.089 775.844 818.523 840.649C683.958 905.452 556.112 951.462 458.222 973.483C409.259 984.499 367.913 989.484 337.004 987.868C321.548 987.062 308.832 984.617 299.098 980.52C289.402 976.443 282.804 970.778 279.356 963.6C275.89 956.409 275.563 947.72 278.438 937.596C281.287 927.434 287.306 915.959 296.323 903.385C314.321 878.215 343.997 848.996 383.142 817.588C461.397 754.785 577.072 683.51 711.638 618.707C846.204 553.902 974.05 507.892 1071.94 485.871C1120.9 474.856 1162.27 469.882 1193.16 471.485C1208.61 472.292 1221.33 474.737 1231.06 478.834C1240.76 482.911 1247.36 488.576 1250.82 495.767Z" stroke="black" stroke-width="2"/>
<path opacity="0.62069" d="M1271.78 535.413C1274.62 542.881 1274.17 551.554 1270.44 561.401C1266.7 571.262 1259.7 582.17 1249.65 593.927C1229.5 617.414 1197.4 643.942 1155.66 671.821C1072.23 727.563 950.778 788.479 811.086 841.316C671.377 894.139 540.003 928.83 440.561 942.232C390.825 948.937 349.201 950.302 318.572 946.012C303.247 943.863 290.786 940.315 281.458 935.393C272.13 930.469 266.061 924.258 263.248 916.8C260.415 909.333 260.862 900.659 264.594 890.813C268.336 880.952 275.328 870.044 285.402 858.299C305.53 834.799 337.634 808.271 379.368 780.393C462.799 724.65 584.253 663.735 723.945 610.898C863.654 558.075 995.028 523.384 1094.47 509.981C1144.21 503.277 1185.83 501.912 1216.48 506.213C1231.78 508.351 1244.25 511.899 1253.59 516.833C1262.9 521.744 1268.97 527.956 1271.78 535.413Z" stroke="black" stroke-width="2"/>
<path opacity="0.655172" d="M1288.92 576.519C1291.09 584.2 1289.9 592.81 1285.32 602.291C1280.73 611.786 1272.81 622.047 1261.75 632.867C1239.66 654.529 1205.35 678.149 1161.36 702.288C1073.38 750.543 947.083 800.648 803.309 841.099C659.534 881.551 525.645 904.663 425.403 909.342C375.285 911.697 333.688 909.418 303.538 902.469C288.463 898.994 276.364 894.377 267.5 888.66C258.653 882.955 253.142 876.232 250.978 868.551C248.813 860.869 250.02 852.272 254.583 842.78C259.174 833.284 267.085 823.023 278.149 812.204C300.24 790.543 334.546 766.923 378.543 742.782C466.52 694.526 592.816 644.424 736.591 603.971C880.365 563.52 1014.27 540.418 1114.5 535.729C1164.61 533.375 1206.21 535.652 1236.36 542.602C1251.44 546.078 1263.53 550.694 1272.4 556.411C1281.26 562.128 1286.76 568.837 1288.92 576.519Z" stroke="black" stroke-width="2"/>
<path opacity="0.689655" d="M1302.11 618.737C1303.59 626.575 1301.64 635.037 1296.26 644.086C1290.88 653.162 1282.09 662.683 1270.13 672.505C1246.23 692.15 1209.99 712.689 1164.07 732.908C1072.23 773.322 942.042 812.221 795.28 839.984C648.537 867.758 513.126 879.102 412.881 875.041C362.726 873 321.495 867.114 292.071 857.566C277.359 852.792 265.689 847.124 257.361 840.659C249.049 834.208 244.138 827.027 242.655 819.191C241.173 811.352 243.124 802.891 248.509 793.842C253.904 784.778 262.679 775.245 274.632 765.422C298.539 745.778 334.772 725.238 380.699 705.019C472.553 664.617 602.725 625.706 749.486 597.944C896.246 570.183 1031.64 558.827 1131.9 562.899C1182.04 564.927 1223.27 570.814 1252.7 580.361C1267.43 585.147 1279.08 590.803 1287.41 597.269C1295.72 603.72 1300.63 610.9 1302.11 618.737Z" stroke="black" stroke-width="2"/>
<path opacity="0.724138" d="M1311.26 661.711C1312.06 669.657 1309.39 677.92 1303.24 686.471C1297.07 695.025 1287.49 703.749 1274.73 712.494C1249.2 729.983 1211.31 747.282 1163.8 763.42C1068.79 795.677 935.691 823.073 787.075 837.943C638.477 852.826 502.59 852.325 403.084 839.546C353.29 833.139 312.739 823.686 284.256 811.607C270.014 805.569 258.889 798.91 251.147 791.738C243.422 784.58 239.169 777.01 238.38 769.076C237.573 761.13 240.25 752.868 246.413 744.328C252.567 735.762 262.15 727.038 274.912 718.293C300.435 700.804 338.329 683.506 385.842 667.366C480.85 635.112 613.946 607.714 762.562 592.844C911.178 577.973 1047.05 578.462 1146.57 591.254C1196.35 597.65 1236.9 607.101 1265.38 619.179C1279.64 625.232 1290.75 631.877 1298.49 639.049C1306.22 646.207 1310.47 653.777 1311.26 661.711Z" stroke="black" stroke-width="2"/>
<path opacity="0.758621" d="M1316.33 705.099C1316.43 713.078 1313.04 721.077 1306.19 729.065C1299.3 737.054 1288.98 744.902 1275.51 752.504C1248.56 767.705 1209.3 781.634 1160.56 793.564C1063.09 817.413 928.134 833.119 778.789 834.981C629.444 836.843 494.123 824.504 396.105 803.098C347.074 792.388 307.498 779.434 280.161 764.907C266.509 757.658 256.003 750.053 248.931 742.244C241.856 734.439 238.28 726.527 238.176 718.548C238.073 710.567 241.46 702.569 248.335 694.594C255.222 686.603 265.522 678.744 278.995 671.143C305.958 655.954 345.2 642.01 393.948 630.081C491.41 606.233 626.369 590.527 775.714 588.665C925.06 586.801 1060.38 599.14 1158.4 620.548C1207.43 631.258 1247.02 644.223 1274.34 658.737C1288.01 666.001 1298.5 673.594 1305.59 681.415C1312.65 689.207 1316.24 697.131 1316.33 705.099Z" stroke="black" stroke-width="2"/>
<path opacity="0.793103" d="M1317.31 748.543C1316.72 756.505 1312.64 764.173 1305.09 771.519C1297.54 778.879 1286.59 785.809 1272.5 792.203C1244.33 804.991 1204.01 815.451 1154.41 823.094C1055.25 838.359 919.431 842.241 770.491 831.081C621.553 819.919 487.828 795.841 392.032 765.959C344.131 751.022 305.829 734.665 279.866 717.816C266.885 709.39 257.085 700.904 250.724 692.511C244.361 684.122 241.479 675.922 242.069 667.96C242.675 660.013 246.734 652.332 254.28 644.986C261.835 637.626 272.784 630.697 286.872 624.302C315.048 611.514 355.368 601.052 404.959 593.411C504.128 578.146 639.962 574.275 788.9 585.437C937.839 596.598 1071.56 620.677 1167.34 650.546C1215.26 665.496 1253.56 681.852 1279.51 698.689C1292.49 707.115 1302.29 715.602 1308.67 724.007C1315.03 732.396 1317.89 740.584 1317.31 748.543Z" stroke="black" stroke-width="2"/>
<path opacity="0.827586" d="M1314.18 791.675C1312.9 799.547 1308.18 806.844 1300.01 813.497C1291.85 820.174 1280.34 826.123 1265.75 831.265C1236.56 841.546 1195.49 848.461 1145.42 851.748C1045.28 858.302 909.65 850.334 762.258 826.24C614.848 802.134 483.727 766.488 390.921 728.386C344.497 709.326 307.755 689.684 283.366 670.642C271.181 661.126 262.152 651.814 256.544 642.893C250.931 633.98 248.774 625.558 250.061 617.687C251.349 609.815 256.081 602.528 264.233 595.865C272.395 589.187 283.905 583.237 298.499 578.097C327.685 567.816 368.753 560.899 418.843 557.626C518.961 551.058 654.595 559.026 802.004 583.134C949.396 607.228 1080.52 642.873 1173.34 680.986C1219.76 700.047 1256.49 719.676 1280.88 738.72C1293.06 748.234 1302.09 757.546 1307.7 766.467C1313.31 775.382 1315.47 783.802 1314.18 791.675Z" stroke="black" stroke-width="2"/>
<path opacity="0.862069" d="M1307.01 834.144C1305.04 841.873 1299.71 848.732 1290.99 854.649C1282.28 860.594 1270.3 865.516 1255.31 869.362C1225.34 877.064 1183.83 880.375 1133.65 879.281C1033.34 877.09 898.898 857.319 754.163 820.467C609.428 783.616 481.923 736.684 392.765 690.621C348.185 667.591 313.306 644.831 290.661 623.73C279.357 613.19 271.178 603.131 266.357 593.746C261.548 584.382 260.145 575.815 262.102 568.073C264.075 560.346 269.405 553.488 278.121 547.57C286.828 541.626 298.815 536.704 313.807 532.858C343.772 525.156 385.302 521.857 435.475 522.951C535.775 525.129 670.214 544.9 814.949 581.752C959.684 618.604 1087.21 665.548 1176.35 711.599C1220.93 734.629 1255.81 757.389 1278.45 778.49C1289.77 789.042 1297.93 799.089 1302.76 808.472C1307.56 817.838 1308.98 826.417 1307.01 834.144Z" stroke="black" stroke-width="2"/>
<path opacity="0.896552" d="M1295.85 875.596C1293.23 883.131 1287.32 889.498 1278.11 894.634C1268.92 899.792 1256.54 903.645 1241.29 906.182C1210.75 911.234 1169.12 910.921 1119.23 905.458C1019.48 894.531 887.282 863.119 746.316 813.796C605.332 764.461 482.403 706.596 397.607 652.946C355.202 626.113 322.44 600.403 301.733 577.417C291.37 565.919 284.097 555.183 280.13 545.428C276.141 535.668 275.483 527.004 278.127 519.482C280.754 511.946 286.682 505.592 295.865 500.446C305.059 495.285 317.44 491.433 332.691 488.895C363.229 483.844 404.877 484.169 454.766 489.632C554.496 500.547 686.699 531.959 827.666 581.282C968.65 630.617 1091.58 688.482 1176.37 742.133C1218.78 768.964 1251.54 794.675 1272.27 817.673C1282.61 829.159 1289.88 839.895 1293.87 849.662C1297.84 859.41 1298.5 868.073 1295.85 875.596Z" stroke="black" stroke-width="2"/>
<path opacity="0.931035" d="M1280.85 915.71C1277.57 922.981 1271.11 928.8 1261.52 933.13C1251.9 937.458 1239.24 940.224 1223.81 941.413C1192.95 943.786 1151.5 939.838 1102.28 930.052C1003.86 910.468 874.902 867.661 738.764 806.231C602.625 744.804 485.204 676.443 405.412 615.608C365.507 585.184 335.102 556.708 316.48 532.008C307.169 519.657 300.868 508.338 297.75 498.258C294.626 488.188 294.738 479.509 298.02 472.24C301.303 464.969 307.737 459.138 317.349 454.82C326.971 450.49 339.612 447.714 355.041 446.526C385.9 444.15 427.353 448.099 476.586 457.898C574.992 477.469 703.949 520.277 840.088 581.705C976.226 643.134 1093.65 711.495 1173.44 772.328C1213.34 802.754 1243.75 831.229 1262.37 855.931C1271.7 868.293 1278 879.613 1281.12 889.692C1284.23 899.75 1284.11 908.428 1280.85 915.71Z" stroke="black" stroke-width="2"/>
<path opacity="0.965517" d="M1262.09 954.126C1258.18 961.08 1251.24 966.312 1241.31 969.791C1231.35 973.27 1218.49 974.914 1203.01 974.751C1172.08 974.438 1131.12 966.886 1082.95 952.848C986.608 924.763 861.877 870.884 731.605 797.82C601.352 724.768 490.321 646.422 416.132 578.865C379.039 545.084 351.23 514.065 334.829 487.832C326.619 474.711 321.34 462.892 319.113 452.578C316.878 442.278 317.746 433.64 321.651 426.684C325.538 419.718 332.479 414.486 342.409 411.007C352.383 407.54 365.228 405.884 380.705 406.045C411.638 406.36 452.596 413.912 500.77 427.95C597.112 456.033 721.842 509.914 852.113 582.978C982.385 656.042 1093.4 734.374 1167.59 801.933C1204.7 835.726 1232.49 866.731 1248.89 892.966C1257.1 906.087 1262.4 917.919 1264.62 928.23C1266.84 938.52 1265.97 947.158 1262.09 954.126Z" stroke="black" stroke-width="2"/>
<path d="M1239.75 990.534C1235.25 997.126 1227.88 1001.73 1217.68 1004.33C1207.45 1006.92 1194.51 1007.45 1179.11 1005.94C1148.32 1002.93 1108.17 991.837 1061.4 973.645C967.876 937.279 848.324 872.735 724.921 788.599C601.518 704.464 497.74 616.745 429.722 542.976C395.696 506.076 370.708 472.762 356.652 445.199C349.626 431.415 345.392 419.176 344.06 408.701C342.755 398.263 344.365 389.726 348.859 383.135C353.352 376.545 360.711 371.928 370.904 369.329C381.141 366.742 394.081 366.212 409.479 367.717C440.273 370.729 480.413 381.82 527.192 400.014C620.711 436.38 740.282 500.935 863.685 585.07C987.089 669.205 1090.85 756.914 1158.87 830.683C1192.89 867.581 1217.88 900.895 1231.94 928.46C1238.96 942.244 1243.2 954.483 1244.53 964.957C1245.83 975.395 1244.24 983.945 1239.75 990.534Z" stroke="black" stroke-width="2"/>
</svg>
