<svg width="66" height="67" viewBox="0 0 66 67" fill="none" xmlns="http://www.w3.org/2000/svg">
<g filter="url(#filter0_d_178_1150)">
<ellipse cx="33.2016" cy="29.6357" rx="18.7143" ry="18.8188" fill="#FAFAFA"/>
</g>
<g clip-path="url(#clip0_178_1150)">
<path d="M37.0337 21.8868H30.4705C28.3344 21.8868 26.5967 23.6343 26.5967 25.7823V32.3823C26.5967 34.5302 28.3344 36.2777 30.4705 36.2777H37.0339C39.1698 36.2777 40.9076 34.5302 40.9076 32.3823V25.7823C40.9076 23.6343 39.1698 21.8868 37.0337 21.8868V21.8868ZM40.0686 32.3823C40.0686 34.065 38.7072 35.434 37.0337 35.434H30.4705C28.7971 35.434 27.4356 34.065 27.4356 32.3823V25.7823C27.4356 24.0995 28.7971 22.7305 30.4705 22.7305H37.0339C38.7072 22.7305 40.0686 24.0995 40.0686 25.7823V32.3823Z" fill="#1A202C"/>
<path d="M33.7519 25.1473C31.5942 25.1473 29.8389 26.9125 29.8389 29.0822C29.8389 31.252 31.5942 33.0171 33.7519 33.0171C35.9096 33.0171 37.6649 31.252 37.6649 29.0822C37.6649 26.9125 35.9096 25.1473 33.7519 25.1473ZM33.7519 32.1734C32.0569 32.1734 30.6778 30.7868 30.6778 29.0822C30.6778 27.3778 32.0569 25.991 33.7519 25.991C35.447 25.991 36.826 27.3778 36.826 29.0822C36.826 30.7868 35.447 32.1734 33.7519 32.1734Z" fill="#1A202C"/>
<path d="M37.7588 23.7499C37.1212 23.7499 36.6025 24.2715 36.6025 24.9126C36.6025 25.5538 37.1212 26.0754 37.7588 26.0754C38.3964 26.0754 38.9152 25.5538 38.9152 24.9126C38.9152 24.2714 38.3964 23.7499 37.7588 23.7499ZM37.7588 25.2316C37.5839 25.2316 37.4415 25.0885 37.4415 24.9126C37.4415 24.7366 37.5839 24.5935 37.7588 24.5935C37.9338 24.5935 38.0762 24.7366 38.0762 24.9126C38.0762 25.0885 37.9338 25.2316 37.7588 25.2316Z" fill="#1A202C"/>
</g>
<defs>
<filter id="filter0_d_178_1150" x="0.487305" y="0.816895" width="65.4287" height="65.6376" filterUnits="userSpaceOnUse" color-interpolation-filters="sRGB">
<feFlood flood-opacity="0" result="BackgroundImageFix"/>
<feColorMatrix in="SourceAlpha" type="matrix" values="0 0 0 0 0 0 0 0 0 0 0 0 0 0 0 0 0 0 127 0" result="hardAlpha"/>
<feOffset dy="4"/>
<feGaussianBlur stdDeviation="7"/>
<feColorMatrix type="matrix" values="0 0 0 0 0 0 0 0 0 0 0 0 0 0 0 0 0 0 0.15 0"/>
<feBlend mode="normal" in2="BackgroundImageFix" result="effect1_dropShadow_178_1150"/>
<feBlend mode="normal" in="SourceGraphic" in2="effect1_dropShadow_178_1150" result="shape"/>
</filter>
<clipPath id="clip0_178_1150">
<rect width="14.3109" height="14.3908" fill="white" transform="translate(26.5967 21.8868)"/>
</clipPath>
</defs>
</svg>
