<svg width="52" height="67" viewBox="0 0 52 67" fill="none" xmlns="http://www.w3.org/2000/svg">
<g filter="url(#filter0_d_178_1164)">
<ellipse cx="33.2856" cy="29.6357" rx="18.7143" ry="18.8188" fill="#FAFAFA"/>
</g>
<g clip-path="url(#clip0_178_1164)">
<path d="M38.7869 35.1706V35.1701H38.79V30.7042C38.79 28.5195 38.3223 26.8365 35.7823 26.8365C34.5613 26.8365 33.7419 27.5103 33.4074 28.1491H33.3721V27.0405H30.9639V35.1701H33.4715V31.1446C33.4715 30.0847 33.6713 29.0598 34.9766 29.0598C36.2627 29.0598 36.2818 30.2694 36.2818 31.2126V35.1706H38.7869Z" fill="#1A202C"/>
<path d="M26.8809 27.041H29.3915V35.1706H26.8809V27.041Z" fill="#1A202C"/>
<path d="M28.1348 22.9938C27.332 22.9938 26.6807 23.6488 26.6807 24.456C26.6807 25.2632 27.332 25.932 28.1348 25.932C28.9375 25.932 29.5889 25.2632 29.5889 24.456C29.5884 23.6488 28.937 22.9938 28.1348 22.9938V22.9938Z" fill="#1A202C"/>
</g>
<defs>
<filter id="filter0_d_178_1164" x="0.571289" y="0.816895" width="65.4287" height="65.6376" filterUnits="userSpaceOnUse" color-interpolation-filters="sRGB">
<feFlood flood-opacity="0" result="BackgroundImageFix"/>
<feColorMatrix in="SourceAlpha" type="matrix" values="0 0 0 0 0 0 0 0 0 0 0 0 0 0 0 0 0 0 127 0" result="hardAlpha"/>
<feOffset dy="4"/>
<feGaussianBlur stdDeviation="7"/>
<feColorMatrix type="matrix" values="0 0 0 0 0 0 0 0 0 0 0 0 0 0 0 0 0 0 0.15 0"/>
<feBlend mode="normal" in2="BackgroundImageFix" result="effect1_dropShadow_178_1164"/>
<feBlend mode="normal" in="SourceGraphic" in2="effect1_dropShadow_178_1164" result="shape"/>
</filter>
<clipPath id="clip0_178_1164">
<rect width="12.1092" height="12.1769" fill="white" transform="translate(26.6807 22.9938)"/>
</clipPath>
</defs>
</svg>
