<svg width="175" height="120" viewBox="0 0 175 120" fill="none" xmlns="http://www.w3.org/2000/svg">
<path d="M7.64551 75.8296L167.635 75.8296" stroke="url(#paint0_linear_247_2322)" stroke-width="5.73685"/>
<path d="M7.64551 44.2002L167.635 44.2002" stroke="url(#paint1_linear_247_2322)" stroke-width="5.73685"/>
<g filter="url(#filter0_d_247_2322)">
<path d="M9.6499 43.1286L10.1409 42.3078L10.6319 41.5044L11.1228 40.72L11.6138 39.9564L12.1048 39.2153L12.5958 38.4984L13.0867 37.8072L13.5777 37.1432L14.0687 36.5081L14.5597 35.9031L15.0506 35.3296L15.5416 34.7888L16.0326 34.2821L16.5236 33.8104L17.0145 33.3749L17.5055 32.9765L17.9965 32.6161L18.4875 32.2945L18.9784 32.0125L19.4694 31.7705L19.9604 31.5693L20.4514 31.4092L20.9423 31.2905L21.4333 31.2136L21.9243 31.1786L22.4153 31.1856L22.9062 31.2346L23.3972 31.3254L23.8882 31.4579L24.3792 31.6318L24.8701 31.8467L25.3611 32.1021L25.8521 32.3974L26.3431 32.732L26.834 33.1051L27.325 33.516L27.816 33.9637L28.307 34.4471L28.798 34.9654L29.2889 35.5171L29.7799 36.1013L30.2709 36.7165L30.7619 37.3614L31.2528 38.0346L31.7438 38.7346L32.2348 39.4597L32.7258 40.2085L33.2167 40.9792L33.7077 41.7702L34.1987 42.5796L34.6897 43.4057L35.1806 44.2466L35.6716 45.1005L36.1626 45.9655L36.6536 46.8397L37.1445 47.7211L37.6355 48.6078L38.1265 49.4977L38.6175 50.389L39.1084 51.2796L39.5994 52.1675L40.0904 53.0509L40.5814 53.9277L41.0723 54.796L41.5633 55.6538L42.0543 56.4993L42.5453 57.3305L43.0362 58.1457L43.5272 58.943L44.0182 59.7207L44.5092 60.4769L45.0001 61.2102L45.4911 61.9187L45.9821 62.601L46.4731 63.2555L46.964 63.8807L47.455 64.4754L47.946 65.0381L48.437 65.5676L48.928 66.0628L49.4189 66.5225L49.9099 66.9458L50.4009 67.3316L50.8919 67.6791L51.3828 67.9876L51.8738 68.2564L52.3648 68.4848L52.8558 68.6724L53.3467 68.8187L53.8377 68.9235L54.3287 68.9864L54.8197 69.0074L55.3106 68.9864L55.8016 68.9235L56.2926 68.8187L56.7836 68.6724L57.2745 68.4848L57.7655 68.2564L58.2565 67.9876L58.7475 67.6791L59.2384 67.3316L59.7294 66.9458L60.2204 66.5225L60.7114 66.0628L61.2023 65.5676L61.6933 65.0381L62.1843 64.4754L62.6753 63.8807L63.1662 63.2555L63.6572 62.601L64.1482 61.9187L64.6392 61.2102L65.1301 60.4769L65.6211 59.7207L66.1121 58.943L66.6031 58.1457L67.0941 57.3305L67.585 56.4993L68.076 55.6538L68.567 54.796L69.058 53.9277L69.5489 53.0509L70.0399 52.1675L70.5309 51.2796L71.0219 50.389L71.5128 49.4977L72.0038 48.6078L72.4948 47.7211L72.9858 46.8397L73.4767 45.9655L73.9677 45.1005L74.4587 44.2466L74.9497 43.4057L75.4406 42.5796L75.9316 41.7702L76.4226 40.9792L76.9136 40.2085L77.4045 39.4597L77.8955 38.7346L78.3865 38.0346L78.8775 37.3614L79.3684 36.7165L79.8594 36.1013L80.3504 35.5171L80.8414 34.9654L81.3323 34.4471L81.8233 33.9637L82.3143 33.516L82.8053 33.1051L83.2962 32.732L83.7872 32.3974L84.2782 32.1021L84.7692 31.8467L85.2602 31.6318L85.7511 31.4579L86.2421 31.3254L86.7331 31.2346L87.2241 31.1856L87.715 31.1786L88.206 31.2136L88.697 31.2905L89.188 31.4092L89.6789 31.5693L90.1699 31.7705L90.6609 32.0125L91.1519 32.2945L91.6428 32.6161L92.1338 32.9765L92.6248 33.3749L93.1158 33.8104L93.6067 34.2821L94.0977 34.7888L94.5887 35.3296L95.0797 35.9031L95.5706 36.5081L96.0616 37.1432L96.5526 37.8072L97.0436 38.4984L97.5345 39.2153L98.0255 39.9564L98.5165 40.72L99.0075 41.5044L99.4984 42.3078L99.9894 43.1286L100.48 43.9648L100.971 44.8146L101.462 45.6761L101.953 46.5474L102.444 47.4266L102.935 48.3117L103.426 49.2008L103.917 50.0919L104.408 50.9829L104.899 51.872L105.39 52.7571L105.881 53.6363L106.372 54.5076L106.863 55.3691L107.354 56.2189L107.845 57.0551L108.336 57.8759L108.827 58.6794L109.318 59.4637L109.809 60.2273L110.3 60.9684L110.791 61.6854L111.282 62.3765L111.773 63.0405L112.264 63.6756L112.755 64.2807L113.246 64.8542L113.737 65.3949L114.228 65.9016L114.719 66.3733L115.21 66.8088L115.701 67.2072L116.192 67.5676L116.683 67.8892L117.174 68.1712L117.665 68.4132L118.156 68.6144L118.646 68.7746L119.137 68.8932L119.628 68.9701L120.119 69.0051L120.61 68.9981L121.101 68.9491L121.592 68.8583L122.083 68.7258L122.574 68.5519L123.065 68.337L123.556 68.0816L124.047 67.7863L124.538 67.4517L125.029 67.0786L125.52 66.6677L126.011 66.22L126.502 65.7366L126.993 65.2184L127.484 64.6666L127.975 64.0824L128.466 63.4672L128.957 62.8223L129.448 62.1491L129.939 61.4492L130.43 60.724L130.921 59.9752L131.412 59.2045L131.903 58.4136L132.394 57.6041L132.885 56.778L133.376 55.9371L133.867 55.0832L134.358 54.2182L134.849 53.344L135.34 52.4626L135.831 51.576L136.322 50.686L136.813 49.7947L137.304 48.9041L137.795 48.0162L138.286 47.1328L138.776 46.256L139.267 45.3877L139.758 44.5299L140.249 43.6844L140.74 42.8532L141.231 42.038L141.722 41.2407L142.213 40.463L142.704 39.7068L143.195 38.9736L143.686 38.265L144.177 37.5828L144.668 36.9283L145.159 36.303L145.65 35.7083L146.141 35.1456L146.632 34.6161L147.123 34.1209L147.614 33.6612L148.105 33.2379L148.596 32.8521L149.087 32.5046L149.578 32.1961L150.069 31.9273L150.56 31.6989L151.051 31.5113L151.542 31.365L152.033 31.2602L152.524 31.1973L153.015 31.1763L153.506 31.1973L153.997 31.2602L154.488 31.365L154.979 31.5113L155.47 31.6989L155.961 31.9273L156.452 32.1961L156.943 32.5046L157.434 32.8521L157.925 33.2379L158.416 33.6612L158.906 34.1209L159.397 34.6161L159.888 35.1456L160.379 35.7083L160.87 36.303L161.361 36.9283L161.852 37.5828L162.343 38.265L162.834 38.9736L163.325 39.7068L163.816 40.463L164.307 41.2407L164.798 42.038L165.289 42.8532" stroke="url(#paint2_linear_247_2322)" stroke-width="6.61944" stroke-miterlimit="10" stroke-linecap="round" stroke-linejoin="round"/>
</g>
<g filter="url(#filter1_d_247_2322)">
<path d="M8.91895 76.1199L9.41073 76.9653L9.9025 77.7966L10.3943 78.6118L10.8861 79.4091L11.3778 80.1867L11.8696 80.943L12.3614 81.6762L12.8532 82.3848L13.345 83.067L13.8367 83.7215L14.3285 84.3468L14.8203 84.9414L15.3121 85.5042L15.8039 86.0337L16.2956 86.5289L16.7874 86.9886L17.2792 87.4118L17.771 87.7976L18.2627 88.1452L18.7545 88.4537L19.2463 88.7224L19.7381 88.9509L20.2299 89.1385L20.7216 89.2848L21.2134 89.3896L21.7052 89.4525L22.197 89.4735L22.6888 89.4525L23.1805 89.3896L23.6723 89.2848L24.1641 89.1385L24.6559 88.9509L25.1477 88.7224L25.6394 88.4537L26.1312 88.1452L26.623 87.7976L27.1148 87.4118L27.6066 86.9886L28.0983 86.5289L28.5901 86.0337L29.0819 85.5042L29.5737 84.9414L30.0654 84.3468L30.5572 83.7215L31.049 83.067L31.5408 82.3848L32.0326 81.6762L32.5243 80.943L33.0161 80.1867L33.5079 79.4091L33.9997 78.6118L34.4915 77.7966L34.9832 76.9653L35.475 76.1199L35.9668 75.262L36.4586 74.3938L36.9504 73.517L37.4421 72.6336L37.9339 71.7456L38.4257 70.855L38.9175 69.9638L39.4093 69.0738L39.901 68.1872L40.3928 67.3058L40.8846 66.4316L41.3764 65.5666L41.8681 64.7127L42.3599 63.8717L42.8517 63.0456L43.3435 62.2362L43.8353 61.4453L44.327 60.6746L44.8188 59.9258L45.3106 59.2006L45.8024 58.5007L46.2942 57.8275L46.7859 57.1826L47.2777 56.5674L47.7695 55.9832L48.2613 55.4314L48.7531 54.9132L49.2448 54.4297L49.7366 53.9821L50.2284 53.5712L50.7202 53.1981L51.2119 52.8634L51.7037 52.5681L52.1955 52.3128L52.6873 52.0979L53.1791 51.924L53.6708 51.7915L54.1626 51.7006L54.6544 51.6517L55.1462 51.6447L55.638 51.6797L56.1297 51.7566L56.6215 51.8752L57.1133 52.0353L57.6051 52.2366L58.0969 52.4785L58.5886 52.7606L59.0804 53.0822L59.5722 53.4426L60.064 53.841L60.5557 54.2765L61.0475 54.7481L61.5393 55.2549L62.0311 55.7956L62.5229 56.3691L63.0147 56.9741L63.5064 57.6093L63.9982 58.2732L64.49 58.9644L64.9818 59.6814L65.4735 60.4224L65.9653 61.186L66.4571 61.9704L66.9489 62.7739L67.4407 63.5946L67.9324 64.4308L68.4242 65.2806L68.916 66.1422L69.4078 67.0135L69.8996 67.8927L70.3913 68.7778L70.8831 69.6669L71.3749 70.5579L71.8667 71.449L72.3585 72.338L72.8502 73.2231L73.342 74.1024L73.8338 74.9737L74.3256 75.8352L74.8173 76.685L75.3091 77.5212L75.8009 78.342L76.2927 79.1454L76.7845 79.9298L77.2762 80.6934L77.768 81.4345L78.2598 82.1514L78.7516 82.8426L79.2434 83.5065L79.7351 84.1417L80.2269 84.7467L80.7187 85.3202L81.2105 85.8609L81.7023 86.3677L82.194 86.8394L82.6858 87.2749L83.1776 87.6733L83.6694 88.0336L84.1611 88.3552L84.6529 88.6373L85.1447 88.8792L85.6365 89.0805L86.1283 89.2406L86.62 89.3593L87.1118 89.4362L87.6036 89.4712L88.0954 89.4642L88.5872 89.4152L89.0789 89.3244L89.5707 89.1918L90.0625 89.018L90.5543 88.8031L91.046 88.5477L91.5378 88.2524L92.0296 87.9178L92.5214 87.5446L93.0132 87.1338L93.5049 86.6861L93.9967 86.2026L94.4885 85.6844L94.9803 85.1326L95.4721 84.5485L95.9638 83.9333L96.4556 83.2883L96.9474 82.6152L97.4392 81.9152L97.931 81.1901L98.4227 80.4413L98.9145 79.6706L99.4063 78.8796L99.8981 78.0702L100.39 77.2441L100.882 76.4032L101.373 75.5492L101.865 74.6842L102.357 73.8101L102.849 72.9287L103.341 72.042L103.832 71.1521L104.324 70.2608L104.816 69.3702L105.308 68.4822L105.799 67.5989L106.291 66.7221L106.783 65.8538L107.275 64.996L107.767 64.1505L108.258 63.3192L108.75 62.5041L109.242 61.7068L109.734 60.9291L110.225 60.1728L110.717 59.4396L111.209 58.7311L111.701 58.0488L112.193 57.3943L112.684 56.7691L113.176 56.1744L113.668 55.6117L114.16 55.0821L114.651 54.587L115.143 54.1272L115.635 53.704L116.127 53.3182L116.619 52.9707L117.11 52.6622L117.602 52.3934L118.094 52.165L118.586 51.9774L119.077 51.831L119.569 51.7263L120.061 51.6633L120.553 51.6423L121.045 51.6633L121.536 51.7263L122.028 51.831L122.52 51.9774L123.012 52.165L123.503 52.3934L123.995 52.6622L124.487 52.9707L124.979 53.3182L125.471 53.704L125.962 54.1272L126.454 54.587L126.946 55.0821L127.438 55.6117L127.929 56.1744L128.421 56.7691L128.913 57.3943L129.405 58.0488L129.897 58.7311L130.388 59.4396L130.88 60.1728L131.372 60.9291L131.864 61.7068L132.355 62.5041L132.847 63.3192L133.339 64.1505L133.831 64.996L134.323 65.8538L134.814 66.7221L135.306 67.5989L135.798 68.4822L136.29 69.3702L136.782 70.2608L137.273 71.1521L137.765 72.042L138.257 72.9287L138.749 73.8101L139.24 74.6842L139.732 75.5492L140.224 76.4032L140.716 77.2441L141.208 78.0702L141.699 78.8796L142.191 79.6706L142.683 80.4413L143.175 81.1901L143.666 81.9152L144.158 82.6152L144.65 83.2883L145.142 83.9333L145.634 84.5485L146.125 85.1326L146.617 85.6844L147.109 86.2026L147.601 86.6861L148.092 87.1338L148.584 87.5446L149.076 87.9178L149.568 88.2524L150.06 88.5477L150.551 88.8031L151.043 89.018L151.535 89.1918L152.027 89.3244L152.518 89.4152L153.01 89.4642L153.502 89.4712L153.994 89.4362L154.486 89.3593L154.977 89.2406L155.469 89.0805L155.961 88.8792L156.453 88.6373L156.944 88.3552L157.436 88.0336L157.928 87.6733L158.42 87.2749L158.912 86.8394L159.403 86.3677L159.895 85.8609L160.387 85.3202L160.879 84.7467L161.37 84.1417L161.862 83.5065L162.354 82.8426L162.846 82.1514L163.338 81.4345L163.829 80.6934L164.321 79.9298L164.813 79.1454L165.305 78.342L165.797 77.5212L166.288 76.685" stroke="url(#paint3_linear_247_2322)" stroke-width="6.61944" stroke-miterlimit="10" stroke-linecap="round" stroke-linejoin="round"/>
</g>
<g filter="url(#filter2_f_247_2322)">
<path fill-rule="evenodd" clip-rule="evenodd" d="M86.0273 93.1947H91.1094C93.8417 83.7522 95.4084 72.5026 95.4084 60.4798C95.4084 44.2347 92.548 29.4011 87.8167 18.5298C87.2498 17.2271 86.6531 15.9745 86.0273 14.7781V29.2537C88.5929 38.127 90.1129 48.8617 90.1129 60.4798C90.1129 72.0979 88.5929 82.8326 86.0273 91.706V93.1947Z" fill="#79A8DC"/>
</g>
<g filter="url(#filter3_f_247_2322)">
<path fill-rule="evenodd" clip-rule="evenodd" d="M80.748 110.716C82.5867 107.807 84.1809 104.081 85.5194 99.8022C88.6894 89.6682 90.6089 75.8309 90.6089 60.6629C90.6089 45.4949 88.6894 31.6575 85.5194 21.5235C84.1809 17.2444 82.5867 13.5186 80.748 10.6101V24.0308C83.554 33.4535 85.3134 46.3533 85.3134 60.6629C85.3134 74.9724 83.554 87.8722 80.748 97.2949V110.716Z" fill="#79A8DC"/>
</g>
<path fill-rule="evenodd" clip-rule="evenodd" d="M39.3868 37.7204V39.8589H38.9917C40.2958 31.8192 42.3456 24.5641 44.9718 18.5298C47.3356 13.0983 50.2186 8.53573 53.5544 5.29374C56.9026 2.03968 60.8405 0 65.1966 0C69.5526 0 73.4905 2.03968 76.8387 5.29374C80.1745 8.53573 83.0575 13.0983 85.4214 18.5298C90.1526 29.4012 93.0131 44.2347 93.0131 60.4799C93.0131 76.725 90.1526 91.5586 85.4214 102.43C83.0575 107.861 80.1745 112.424 76.8387 115.666C73.4905 118.92 69.5526 120.96 65.1966 120.96C60.8405 120.96 56.9026 118.92 53.5544 115.666C50.2186 112.424 47.3356 107.861 44.9718 102.43C42.5093 96.7716 40.5535 90.04 39.2442 82.5946L40.3736 82.5741C41.2189 81.8184 42.3298 81.3211 43.5955 81.2361C43.8211 81.221 44.044 81.2195 44.2633 81.2308L44.2478 80.4301C45.4904 88.0112 47.4154 94.7745 49.8274 100.317C52.0182 105.351 54.5587 109.258 57.2451 111.868C59.9192 114.467 62.6024 115.664 65.1966 115.664C67.7907 115.664 70.4739 114.467 73.148 111.868C75.8345 109.258 78.3749 105.351 80.5657 100.317C84.9438 90.257 87.7175 76.1745 87.7175 60.4799C87.7175 44.7852 84.9438 30.7027 80.5657 20.643C78.3749 15.609 75.8345 11.7022 73.148 9.09128C70.4739 6.49242 67.7907 5.29556 65.1966 5.29556C62.6024 5.29556 59.9192 6.49242 57.2451 9.09128C54.5587 11.7022 52.0182 15.609 49.8274 20.643C47.8573 25.1699 46.212 30.5114 44.9982 36.4479H43.3012C42.4414 37.1881 41.3211 37.6652 40.0539 37.7271C39.8283 37.7381 39.6057 37.7356 39.3868 37.7204Z" fill="url(#paint4_linear_247_2322)"/>
<path d="M7.32542 42.4172L14.86 46.2159H5.36182L7.32542 42.4172Z" fill="#075B9E"/>
<path d="M167.476 42.1846L161.865 46.2158H169.64L167.476 42.1846Z" fill="#075B9E"/>
<path d="M168.497 77.5352L162.506 73.8141H170.521L168.497 77.5352Z" fill="#075B9E"/>
<path d="M6.94347 77.5352L12.6949 73.8141H5L6.94347 77.5352Z" fill="#075B9E"/>
<defs>
<filter id="filter0_d_247_2322" x="4.57466" y="27.8665" width="165.79" height="47.9811" filterUnits="userSpaceOnUse" color-interpolation-filters="sRGB">
<feFlood flood-opacity="0" result="BackgroundImageFix"/>
<feColorMatrix in="SourceAlpha" type="matrix" values="0 0 0 0 0 0 0 0 0 0 0 0 0 0 0 0 0 0 127 0" result="hardAlpha"/>
<feOffset dy="1.76518"/>
<feGaussianBlur stdDeviation="0.882592"/>
<feComposite in2="hardAlpha" operator="out"/>
<feColorMatrix type="matrix" values="0 0 0 0 0 0 0 0 0 0 0 0 0 0 0 0 0 0 0.25 0"/>
<feBlend mode="normal" in2="BackgroundImageFix" result="effect1_dropShadow_247_2322"/>
<feBlend mode="normal" in="SourceGraphic" in2="effect1_dropShadow_247_2322" result="shape"/>
</filter>
<filter id="filter1_d_247_2322" x="0.726294" y="45.2151" width="173.755" height="54.2159" filterUnits="userSpaceOnUse" color-interpolation-filters="sRGB">
<feFlood flood-opacity="0" result="BackgroundImageFix"/>
<feColorMatrix in="SourceAlpha" type="matrix" values="0 0 0 0 0 0 0 0 0 0 0 0 0 0 0 0 0 0 127 0" result="hardAlpha"/>
<feMorphology radius="4" operator="dilate" in="SourceAlpha" result="effect1_dropShadow_247_2322"/>
<feOffset dy="1.76518"/>
<feGaussianBlur stdDeviation="0.441296"/>
<feComposite in2="hardAlpha" operator="out"/>
<feColorMatrix type="matrix" values="0 0 0 0 0 0 0 0 0 0 0 0 0 0 0 0 0 0 1 0"/>
<feBlend mode="normal" in2="BackgroundImageFix" result="effect1_dropShadow_247_2322"/>
<feBlend mode="normal" in="SourceGraphic" in2="effect1_dropShadow_247_2322" result="shape"/>
</filter>
<filter id="filter2_f_247_2322" x="82.0273" y="10.7781" width="17.3809" height="86.4165" filterUnits="userSpaceOnUse" color-interpolation-filters="sRGB">
<feFlood flood-opacity="0" result="BackgroundImageFix"/>
<feBlend mode="normal" in="SourceGraphic" in2="BackgroundImageFix" result="shape"/>
<feGaussianBlur stdDeviation="2" result="effect1_foregroundBlur_247_2322"/>
</filter>
<filter id="filter3_f_247_2322" x="76.748" y="6.61011" width="17.8613" height="108.105" filterUnits="userSpaceOnUse" color-interpolation-filters="sRGB">
<feFlood flood-opacity="0" result="BackgroundImageFix"/>
<feBlend mode="normal" in="SourceGraphic" in2="BackgroundImageFix" result="shape"/>
<feGaussianBlur stdDeviation="2" result="effect1_foregroundBlur_247_2322"/>
</filter>
<linearGradient id="paint0_linear_247_2322" x1="67.5358" y1="76.3296" x2="107.745" y2="76.3296" gradientUnits="userSpaceOnUse">
<stop stop-color="#075B9E"/>
<stop offset="0.2" stop-color="#2B92C5"/>
<stop offset="0.48" stop-color="#5FC6C0"/>
<stop offset="0.731865" stop-color="#1E85C6"/>
<stop offset="1" stop-color="#075B9E"/>
</linearGradient>
<linearGradient id="paint1_linear_247_2322" x1="67.5358" y1="44.7002" x2="107.745" y2="44.7002" gradientUnits="userSpaceOnUse">
<stop stop-color="#075B9E"/>
<stop offset="0.2" stop-color="#2B92C5"/>
<stop offset="0.48" stop-color="#5FC6C0"/>
<stop offset="0.731865" stop-color="#1E85C6"/>
<stop offset="1" stop-color="#075B9E"/>
</linearGradient>
<linearGradient id="paint2_linear_247_2322" x1="67.9117" y1="50.0919" x2="107.027" y2="50.0919" gradientUnits="userSpaceOnUse">
<stop stop-color="#075B9E"/>
<stop offset="0.2" stop-color="#2B92C5"/>
<stop offset="0.48" stop-color="#5FC6C0"/>
<stop offset="0.731865" stop-color="#1E85C6"/>
<stop offset="1" stop-color="#075B9E"/>
</linearGradient>
<linearGradient id="paint3_linear_247_2322" x1="67.8283" y1="70.5579" x2="107.379" y2="70.5579" gradientUnits="userSpaceOnUse">
<stop stop-color="#075B9E"/>
<stop offset="0.2" stop-color="#2B92C5"/>
<stop offset="0.48" stop-color="#5FC6C0"/>
<stop offset="0.731865" stop-color="#1E85C6"/>
<stop offset="1" stop-color="#075B9E"/>
</linearGradient>
<linearGradient id="paint4_linear_247_2322" x1="93.0131" y1="58.0588" x2="38.756" y2="63.5646" gradientUnits="userSpaceOnUse">
<stop stop-color="white"/>
<stop offset="1"/>
</linearGradient>
</defs>
</svg>
