<svg width="66" height="67" viewBox="0 0 66 67" fill="none" xmlns="http://www.w3.org/2000/svg">
<g filter="url(#filter0_d_178_1157)">
<ellipse cx="33.2436" cy="29.6357" rx="18.7143" ry="18.8188" fill="#FAFAFA"/>
</g>
<g clip-path="url(#clip0_178_1157)">
<path d="M39.849 25.7271C39.3168 25.9619 38.7498 26.1175 38.1585 26.193C38.7667 25.8279 39.231 25.254 39.4492 24.5624C38.8821 24.9023 38.256 25.1425 37.5888 25.2765C37.0503 24.7 36.2829 24.3429 35.4457 24.3429C33.8214 24.3429 32.5138 25.6687 32.5138 27.2939C32.5138 27.5278 32.5334 27.7526 32.5817 27.9667C30.1426 27.8471 27.9844 26.6715 26.5345 24.8808C26.2814 25.3224 26.1329 25.8279 26.1329 26.372C26.1329 27.3938 26.6561 28.2995 27.4361 28.8238C26.9647 28.8149 26.5023 28.6772 26.1105 28.4605C26.1105 28.4695 26.1105 28.4812 26.1105 28.4929C26.1105 29.9265 27.1275 31.1174 28.4611 31.3917C28.2223 31.4574 27.962 31.4889 27.6919 31.4889C27.504 31.4889 27.3144 31.4781 27.1364 31.4385C27.5166 32.6068 28.5953 33.4658 29.8779 33.4937C28.8797 34.2789 27.6123 34.752 26.2402 34.752C25.9996 34.752 25.7688 34.7412 25.5381 34.7115C26.8377 35.5543 28.3779 36.0355 30.0389 36.0355C35.4377 36.0355 38.3893 31.5383 38.3893 27.6402C38.3893 27.5098 38.3848 27.3839 38.3786 27.2588C38.9608 26.8433 39.4501 26.3243 39.849 25.7271Z" fill="#1A202C"/>
</g>
<defs>
<filter id="filter0_d_178_1157" x="0.529297" y="0.816895" width="65.4287" height="65.6376" filterUnits="userSpaceOnUse" color-interpolation-filters="sRGB">
<feFlood flood-opacity="0" result="BackgroundImageFix"/>
<feColorMatrix in="SourceAlpha" type="matrix" values="0 0 0 0 0 0 0 0 0 0 0 0 0 0 0 0 0 0 127 0" result="hardAlpha"/>
<feOffset dy="4"/>
<feGaussianBlur stdDeviation="7"/>
<feColorMatrix type="matrix" values="0 0 0 0 0 0 0 0 0 0 0 0 0 0 0 0 0 0 0.15 0"/>
<feBlend mode="normal" in2="BackgroundImageFix" result="effect1_dropShadow_178_1157"/>
<feBlend mode="normal" in="SourceGraphic" in2="effect1_dropShadow_178_1157" result="shape"/>
</filter>
<clipPath id="clip0_178_1157">
<rect width="14.3109" height="14.3908" fill="white" transform="translate(25.5381 22.9938)"/>
</clipPath>
</defs>
</svg>
